<svg xmlns="http://www.w3.org/2000/svg" viewBox="0 0 208 208"><defs><style>.cls-1{fill:#ff4b5a;}.cls-2{fill:#fff;}</style></defs><g id="Layer_1" data-name="Layer 1"><path class="cls-1" d="M176.0294,17A14.98757,14.98757,0,0,1,191,31.9706V176.0294A14.98758,14.98758,0,0,1,176.0294,191H31.9706A14.98758,14.98758,0,0,1,17,176.0294V31.9706A14.98758,14.98758,0,0,1,31.9706,17H176.0294m0-17H31.9706A31.97062,31.97062,0,0,0,0,31.9706V176.0294A31.97062,31.97062,0,0,0,31.9706,208H176.0294A31.97061,31.97061,0,0,0,208,176.0294V31.9706A31.97061,31.97061,0,0,0,176.0294,0Z"/><rect class="cls-2" x="73.5" y="165.5" width="55" height="18"/><path class="cls-1" d="M120,174v1H82v-1h38m17-17H65v35h72V157Z"/><rect class="cls-2" x="9" y="53" width="187" height="14"/><polygon class="cls-1" points="196 53 9 53 9 67 196 67 196 53 196 53"/><rect class="cls-2" x="123" y="104" width="8" height="51" rx="4"/><path class="cls-1" d="M127,104a4,4,0,0,0-4,4v43a4,4,0,0,0,8,0V108a4,4,0,0,0-4-4Z"/><rect class="cls-2" x="124.49986" y="67.49989" width="6" height="46"/><path class="cls-1" d="M136.79414,59H118.2059A2.20587,2.20587,0,0,0,116,61.20586v58.58825A2.20588,2.20588,0,0,0,118.2059,122h18.58824A2.20586,2.20586,0,0,0,139,119.79411V61.20586A2.20585,2.20585,0,0,0,136.79414,59Z"/><rect class="cls-2" x="73.5" y="155.5" width="38" height="15"/><polygon class="cls-1" points="120 147 65 147 65 179 120 179 120 147 120 147"/></g></svg>